HIERARCHY
ROOT Hips
{
    OFFSET 0.000000 0.000000 0.000000
    CHANNELS 6 Xposition Yposition Zposition Zrotation Xrotation Yrotation
    JOINT Spine
    {
        OFFSET -0.000000 7.284621 0.000000
        CHANNELS 3 Zrotation Xrotation Yrotation
        JOINT Spine1
        {
            OFFSET -0.000000 19.968920 0.000000
            CHANNELS 3 Zrotation Xrotation Yrotation
            JOINT Neck
            {
                OFFSET -0.000000 21.745657 0.000000
                CHANNELS 3 Zrotation Xrotation Yrotation
                JOINT Head
                {
                    OFFSET -0.000000 13.769711 1.776737
                    CHANNELS 3 Zrotation Xrotation Yrotation
                    End Site
                    {
                        OFFSET -0.000000 17.767368 0.000000
                    }
                }
            }
            JOINT LeftShoulder
            {
                OFFSET 3.594505 17.711157 -0.013107
                CHANNELS 3 Zrotation Xrotation Yrotation
                JOINT LeftArm
                {
                    OFFSET 12.210003 0.000000 0.000000
                    CHANNELS 3 Zrotation Xrotation Yrotation
                    JOINT LeftForeArm
                    {
                        OFFSET 24.535166 0.000000 0.000000
                        CHANNELS 3 Zrotation Xrotation Yrotation
                        JOINT LeftHand
                        {
                            OFFSET 20.235195 0.000000 0.000000
                            CHANNELS 3 Zrotation Xrotation Yrotation
                            JOINT LeftHandThumb1
                            {
                                OFFSET 1.906737 -2.166747 3.033446
                                CHANNELS 3 Zrotation Xrotation Yrotation
                                JOINT LeftHandThumb2
                                {
                                    OFFSET 2.043247 0.000000 1.332553
                                    CHANNELS 3 Zrotation Xrotation Yrotation
                                    JOINT LeftHandThumb3
                                    {
                                        OFFSET 2.665105 0.000000 0.000000
                                        CHANNELS 3 Zrotation Xrotation Yrotation
                                        End Site
                                        {
                                            OFFSET 2.367595 0.000000 0.000000
                                        }
                                    }
                                }
                            }
                            JOINT LeftHandIndex1
                            {
                                OFFSET 7.800290 0.000000 3.033446
                                CHANNELS 3 Zrotation Xrotation Yrotation
                                JOINT LeftHandIndex2
                                {
                                    OFFSET 4.441842 0.000000 0.000000
                                    CHANNELS 3 Zrotation Xrotation Yrotation
                                    JOINT LeftHandIndex3
                                    {
                                        OFFSET 2.220921 0.000000 0.000000
                                        CHANNELS 3 Zrotation Xrotation Yrotation
                                        End Site
                                        {
                                            OFFSET 1.972996 0.000000 0.000000
                                        }
                                    }
                                }
                            }
                            JOINT LeftHandMiddle1
                            {
                                OFFSET 7.800290 0.000000 1.005371
                                CHANNELS 3 Zrotation Xrotation Yrotation
                                JOINT LeftHandMiddle2
                                {
                                    OFFSET 4.886026 0.000000 0.000000
                                    CHANNELS 3 Zrotation Xrotation Yrotation
                                    JOINT LeftHandMiddle3
                                    {
                                        OFFSET 2.665105 0.000000 0.000000
                                        CHANNELS 3 Zrotation Xrotation Yrotation
                                        End Site
                                        {
                                            OFFSET 2.367595 0.000000 0.000000
                                        }
                                    }
                                }
                            }
                            JOINT LeftHandRing1
                            {
                                OFFSET 7.366940 0.000000 -1.005371
                                CHANNELS 3 Zrotation Xrotation Yrotation
                                JOINT LeftHandRing2
                                {
                                    OFFSET 4.441842 0.000000 0.000000
                                    CHANNELS 3 Zrotation Xrotation Yrotation
                                    JOINT LeftHandRing3
                                    {
                                        OFFSET 2.220921 0.000000 0.000000
                                        CHANNELS 3 Zrotation Xrotation Yrotation
                                        End Site
                                        {
                                            OFFSET 1.972996 0.000000 0.000000
                                        }
                                    }
                                }
                            }
                            JOINT LeftHandPinky1
                            {
                                OFFSET 6.933591 0.000000 -3.033446
                                CHANNELS 3 Zrotation Xrotation Yrotation
                                JOINT LeftHandPinky2
                                {
                                    OFFSET 3.553473 0.000000 0.000000
                                    CHANNELS 3 Zrotation Xrotation Yrotation
                                    JOINT LeftHandPinky3
                                    {
                                        OFFSET 1.776737 0.000000 0.000000
                                        CHANNELS 3 Zrotation Xrotation Yrotation
                                        End Site
                                        {
                                            OFFSET 1.578397 0.000000 0.000000
                                        }
                                    }
                                }
                            }
                        }
                    }
                }
            }
            JOINT RightShoulder
            {
                OFFSET -3.500468 17.711157 -0.013107
                CHANNELS 3 Zrotation Xrotation Yrotation
                JOINT RightArm
                {
                    OFFSET -12.210003 0.000000 0.000000
                    CHANNELS 3 Zrotation Xrotation Yrotation
                    JOINT RightForeArm
                    {
                        OFFSET -24.535166 0.000000 0.000000
                        CHANNELS 3 Zrotation Xrotation Yrotation
                        JOINT RightHand
                        {
                            OFFSET -20.235195 0.000000 0.000000
                            CHANNELS 3 Zrotation Xrotation Yrotation
                            JOINT RightHandThumb1
                            {
                                OFFSET -1.906737 -2.166747 3.033446
                                CHANNELS 3 Zrotation Xrotation Yrotation
                                JOINT RightHandThumb2
                                {
                                    OFFSET -2.043247 0.000000 1.332553
                                    CHANNELS 3 Zrotation Xrotation Yrotation
                                    JOINT RightHandThumb3
                                    {
                                        OFFSET -2.665105 0.000000 0.000000
                                        CHANNELS 3 Zrotation Xrotation Yrotation
                                        End Site
                                        {
                                            OFFSET -2.367595 0.000000 0.000000
                                        }
                                    }
                                }
                            }
                            JOINT RightHandIndex1
                            {
                                OFFSET -7.800290 0.000000 3.033446
                                CHANNELS 3 Zrotation Xrotation Yrotation
                                JOINT RightHandIndex2
                                {
                                    OFFSET -4.441842 0.000000 0.000000
                                    CHANNELS 3 Zrotation Xrotation Yrotation
                                    JOINT RightHandIndex3
                                    {
                                        OFFSET -2.220921 0.000000 0.000000
                                        CHANNELS 3 Zrotation Xrotation Yrotation
                                        End Site
                                        {
                                            OFFSET -1.972996 0.000000 0.000000
                                        }
                                    }
                                }
                            }
                            JOINT RightHandMiddle1
                            {
                                OFFSET -7.800290 0.000000 1.005371
                                CHANNELS 3 Zrotation Xrotation Yrotation
                                JOINT RightHandMiddle2
                                {
                                    OFFSET -4.886026 0.000000 0.000000
                                    CHANNELS 3 Zrotation Xrotation Yrotation
                                    JOINT RightHandMiddle3
                                    {
                                        OFFSET -2.665105 0.000000 0.000000
                                        CHANNELS 3 Zrotation Xrotation Yrotation
                                        End Site
                                        {
                                            OFFSET -2.367595 0.000000 0.000000
                                        }
                                    }
                                }
                            }
                            JOINT RightHandRing1
                            {
                                OFFSET -7.366940 0.000000 -1.005371
                                CHANNELS 3 Zrotation Xrotation Yrotation
                                JOINT RightHandRing2
                                {
                                    OFFSET -4.441842 0.000000 0.000000
                                    CHANNELS 3 Zrotation Xrotation Yrotation
                                    JOINT RightHandRing3
                                    {
                                        OFFSET -2.220921 0.000000 0.000000
                                        CHANNELS 3 Zrotation Xrotation Yrotation
                                        End Site
                                        {
                                            OFFSET -1.972996 0.000000 0.000000
                                        }
                                    }
                                }
                            }
                            JOINT RightHandPinky1
                            {
                                OFFSET -6.933591 0.000000 -3.033446
                                CHANNELS 3 Zrotation Xrotation Yrotation
                                JOINT RightHandPinky2
                                {
                                    OFFSET -3.553473 0.000000 0.000000
                                    CHANNELS 3 Zrotation Xrotation Yrotation
                                    JOINT RightHandPinky3
                                    {
                                        OFFSET -1.776737 0.000000 0.000000
                                        CHANNELS 3 Zrotation Xrotation Yrotation
                                        End Site
                                        {
                                            OFFSET -1.578397 0.000000 0.000000
                                        }
                                    }
                                }
                            }
                        }
                    }
                }
            }
        }
    }
    JOINT LeftUpLeg
    {
        OFFSET 8.883684 0.000000 0.000000
        CHANNELS 3 Zrotation Xrotation Yrotation
        JOINT LeftLeg
        {
            OFFSET -0.000000 -38.184189 0.000000
            CHANNELS 3 Zrotation Xrotation Yrotation
            JOINT LeftFoot
            {
                OFFSET -0.000000 -35.840691 0.000000
                CHANNELS 3 Zrotation Xrotation Yrotation
                JOINT LeftToeBase
                {
                    OFFSET -0.000000 -5.774395 13.325527
                    CHANNELS 3 Zrotation Xrotation Yrotation
                    End Site
                    {
                        OFFSET -0.000000 0.000000 3.553473
                    }
                }
            }
        }
    }
    JOINT RightUpLeg
    {
        OFFSET -8.883684 0.000000 0.000000
        CHANNELS 3 Zrotation Xrotation Yrotation
        JOINT RightLeg
        {
            OFFSET -0.000000 -38.184189 0.000000
            CHANNELS 3 Zrotation Xrotation Yrotation
            JOINT RightFoot
            {
                OFFSET -0.000000 -35.840691 0.000000
                CHANNELS 3 Zrotation Xrotation Yrotation
                JOINT RightToeBase
                {
                    OFFSET -0.000000 -5.774395 13.325527
                    CHANNELS 3 Zrotation Xrotation Yrotation
                    End Site
                    {
                        OFFSET -0.000000 0.000000 3.553473
                    }
                }
            }
        }
    }
}
MOTION
Frames:    4
Frame Time:    0.008333
6.234826    81.429176    118.825516    2.135324    -0.540172    2.708302    -0.351645    -1.445810    -0.891583    -3.914299    5.360601    -0.112312    3.541029    0.462208    -0.884990    -1.290061    1.628539    -0.243238    1.971403    7.974105    -9.249109    -80.063072    39.740189    -9.342061    7.728200    -11.585951    2.345256    -17.703596    -42.699329    -12.172502    4.138469    1.512964    7.003278    -0.000000    0.000000    5.424183    -0.000000    0.000000    10.848366    4.771097    -0.576390    -6.872558    0.000000    0.000000    0.000000    0.000000    0.000000    0.000000    -6.665714    -1.057073    -1.243317    -19.768127    0.000000    0.000000    -9.884063    0.000000    0.000000    -18.007633    -2.640622    4.182334    -39.536255    0.000000    0.000000    -19.768122    0.000000    0.000000    -29.514254    -5.346890    9.347583    -59.903412    0.000000    0.000000    -29.951706    0.000000    0.000000    -2.944468    -0.967298    2.885718    88.819916    53.606926    -3.764300    -3.862823    -20.886749    4.915642    26.982889    -55.788235    17.091146    -0.334208    -0.355239    0.349179    0.000000    0.000000    0.000000    0.000000    0.000000    0.000000    7.393358    0.070456    0.542960    14.787389    0.000000    -0.000000    7.393693    0.000000    -0.000000    16.097692    0.034844    0.274444    32.195419    0.000000    -0.000000    16.097712    0.000000    -0.000000    24.801765    -0.040994    0.014411    49.603455    0.000000    -0.000000    24.801723    0.000000    -0.000000    33.769165    -0.159348    -0.238307    67.539001    0.000000    -0.000000    33.769501    0.000000    -0.000000    -4.742465    -6.434461    -3.199221    -0.924881    18.091265    0.124060    1.998198    -10.869629    4.900722    0.247027    0.949814    -0.303587    -2.207695    -6.179767    6.661569    1.635268    18.717562    0.277696    -1.402899    -11.352530    -7.978743    -0.071269    0.049260    0.119338    
6.235274    81.427376    118.821510    2.147987    -0.552323    2.721146    -0.352705    -1.410664    -0.894823    -3.926605    5.389867    -0.111603    3.536827    0.417736    -0.880357    -1.298628    1.600884    -0.239573    1.970017    7.961201    -9.269986    -80.040039    39.743778    -9.362658    7.742422    -11.560308    2.357201    -17.704443    -42.700005    -12.183599    4.132523    1.517467    7.003444    -0.000000    0.000000    5.425992    -0.000000    0.000000    10.851986    4.777760    -0.577628    -6.877618    0.000000    0.000000    0.000000    0.000000    0.000000    0.000000    -6.668355    -1.057223    -1.249149    -19.782249    0.000000    0.000000    -9.891125    0.000000    0.000000    -18.019663    -2.640437    4.175700    -39.564499    0.000000    0.000000    -19.782249    0.000000    0.000000    -29.536011    -5.347064    9.339751    -59.946213    0.000000    0.000000    -29.973106    0.000000    0.000000    -2.950625    -0.972767    2.884504    88.833359    53.652451    -3.772016    -3.846477    -20.949736    4.944255    27.058239    -55.823689    17.186426    -0.335639    -0.352755    0.343871    0.000000    0.000000    0.000000    0.000000    0.000000    0.000000    7.365364    0.070237    0.543349    14.731395    0.000000    -0.000000    7.365696    0.000000    -0.000000    16.061829    0.030064    0.264572    32.123672    0.000000    -0.000000    16.061832    0.000000    -0.000000    24.757996    -0.051798    -0.004926    49.515949    0.000000    -0.000000    24.757969    0.000000    -0.000000    33.717216    -0.177746    -0.266342    67.435265    0.000000    -0.000000    33.717632    0.000000    -0.000000    -4.748497    -6.441523    -3.267583    -0.956698    18.131599    0.181321    1.974705    -10.925583    4.915580    0.246651    0.933996    -0.308096    -2.218653    -6.176517    6.688038    1.645177    18.731377    0.234260    -1.407010    -11.346301    -7.976685    -0.071049    0.060743    0.118509    
6.235495    81.425514    118.817368    2.159523    -0.565154    2.735014    -0.354046    -1.374394    -0.898383    -3.937162    5.418752    -0.111485    3.533624    0.372192    -0.876404    -1.307638    1.575445    -0.236254    1.968234    7.949021    -9.289003    -80.015747    39.750175    -9.382710    7.756128    -11.537807    2.366352    -17.707411    -42.700054    -12.196558    4.128716    1.520147    7.003255    -0.000000    0.000000    5.426993    -0.000000    0.000000    10.853986    4.783935    -0.579091    -6.886018    0.000000    0.000000    0.000000    0.000000    0.000000    0.000000    -6.670341    -1.057117    -1.257553    -19.794365    0.000000    0.000000    -9.897181    0.000000    0.000000    -18.029924    -2.639572    4.167374    -39.588737    0.000000    0.000000    -19.794365    0.000000    0.000000    -29.554840    -5.346203    9.331256    -59.982925    0.000000    0.000000    -29.991463    0.000000    0.000000    -2.956398    -0.977516    2.883066    88.844688    53.693367    -3.777363    -3.830477    -21.010975    4.971424    27.132553    -55.860989    17.280550    -0.337739    -0.350461    0.338383    0.000000    0.000000    0.000000    0.000000    0.000000    0.000000    7.338997    0.070169    0.544796    14.678659    0.000000    -0.000000    7.339332    0.000000    -0.000000    16.026802    0.025743    0.256023    32.053600    0.000000    -0.000000    16.026800    0.000000    -0.000000    24.714279    -0.061792    -0.022726    49.428543    0.000000    -0.000000    24.714268    0.000000    -0.000000    33.664497    -0.194936    -0.292685    67.329987    0.000000    -0.000000    33.665001    0.000000    -0.000000    -4.752717    -6.449975    -3.328719    -0.987513    18.175493    0.230011    1.952776    -10.981977    4.930655    0.246900    0.919352    -0.313794    -2.227534    -6.173201    6.711963    1.653036    18.746979    0.203898    -1.413393    -11.340928    -7.986052    -0.070993    0.071729    0.117978    
6.235349    81.423553    118.813026    2.169163    -0.579033    2.750567    -0.356249    -1.336235    -0.903252    -3.944151    5.446670    -0.111861    3.531352    0.325927    -0.873021    -1.316164    1.552711    -0.233609    1.965548    7.938495    -9.304672    -79.989120    39.761726    -9.401954    7.768830    -11.521447    2.370254    -17.714190    -42.699123    -12.212373    4.128261    1.519842    7.002319    -0.000000    0.000000    5.426573    -0.000000    0.000000    10.853148    4.789067    -0.580984    -6.900940    0.000000    0.000000    0.000000    0.000000    0.000000    0.000000    -6.671507    -1.056447    -1.271276    -19.803329    0.000000    0.000000    -9.901667    0.000000    0.000000    -18.037560    -2.637232    4.155151    -39.606659    0.000000    0.000000    -19.803333    0.000000    0.000000    -29.569180    -5.343078    9.320569    -60.010098    0.000000    0.000000    -30.005049    0.000000    0.000000    -2.961877    -0.980731    2.882192    88.852188    53.725983    -3.778289    -3.815335    -21.070032    4.995716    27.205633    -55.901035    17.373398    -0.340787    -0.348209    0.332244    0.000000    0.000000    0.000000    0.000000    0.000000    0.000000    7.315886    0.070447    0.548697    14.632449    0.000000    -0.000000    7.316223    0.000000    -0.000000    15.993680    0.022006    0.249571    31.987339    0.000000    -0.000000    15.993670    0.000000    -0.000000    24.671101    -0.071011    -0.038822    49.342228    0.000000    -0.000000    24.671114    0.000000    -0.000000    33.610928    -0.211209    -0.317759    67.223022    0.000000    -0.000000    33.611511    0.000000    -0.000000    -4.753843    -6.460990    -3.376951    -1.016512    18.225649    0.264097    1.933495    -11.039156    4.945611    0.247975    0.906212    -0.321071    -2.233047    -6.169789    6.731448    1.657620    18.765436    0.194793    -1.423388    -11.336992    -8.013780    -0.071075    0.082115    0.117706    
